<svg xmlns="http://www.w3.org/2000/svg" version="1.1" xmlns:xlink="http://www.w3.org/1999/xlink" xmlns:svgjs="http://svgjs.dev/svgjs" width="1000" height="623" viewBox="0 0 1000 623"><g transform="matrix(1,0,0,1,-0.6060606060606233,0.2522267206477409)"><svg viewBox="0 0 396 247" data-background-color="#ffffff" preserveAspectRatio="xMidYMid meet" height="623" width="1000" xmlns="http://www.w3.org/2000/svg" xmlns:xlink="http://www.w3.org/1999/xlink"><g id="tight-bounds" transform="matrix(1,0,0,1,0.2400000000000091,-0.09999999999999432)"><svg viewBox="0 0 395.52 247.2" height="247.2" width="395.52"><g><svg></svg></g><g><svg viewBox="0 0 395.52 247.2" height="247.2" width="395.52"><g transform="matrix(1,0,0,1,135.11347338129497,47.215199999999996)"><svg viewBox="0 0 125.29305323741006 152.7696" height="152.7696" width="125.29305323741006"><g><svg viewBox="0 0 125.29305323741006 152.7696" height="152.7696" width="125.29305323741006"><g><svg viewBox="0 0 125.29305323741006 152.7696" height="152.7696" width="125.29305323741006"><g><svg viewBox="0 0 125.29305323741006 152.7696" height="152.7696" width="125.29305323741006"><g id="textblocktransform"><svg viewBox="0 0 125.29305323741006 152.7696" height="152.7696" width="125.29305323741006" id="textblock"><g><svg viewBox="0 0 125.29305323741006 152.7696" height="152.7696" width="125.29305323741006"><g transform="matrix(1,0,0,1,0,0)"><svg width="125.29305323741006" viewBox="0.45000001788139343 -34.099998474121094 28.5 34.75" height="152.7696" data-palette-color="#0080ff"><path d="M27.15-34.1Q28.95-33.15 28.95-31.7L28.95-31.7Q28.95-30.8 28-30.03 27.05-29.25 25.85-28.9L25.85-28.9 25.25-28.85Q18.8-28.5 13.45-27.9L13.45-27.9 10.65-16.7Q14.35-17.3 17.2-17.55 20.05-17.8 20.6-17.85L20.6-17.85 22.55-18Q24.5-17.15 24.5-15.7L24.5-15.7Q24.5-14.8 23.6-13.95 22.7-13.1 21.55-12.75L21.55-12.75 20.8-12.65Q18.55-12.4 16.6-12.25L16.6-12.25Q11.5-11.8 9.35-11.45L9.35-11.45 6.95-1.8Q6.7-0.75 6.43-0.28 6.15 0.2 5.48 0.43 4.8 0.65 3.45 0.65L3.45 0.65Q1.9 0.65 1.18 0.13 0.45-0.4 0.45-1.65L0.45-1.65Q0.45-2.2 0.6-2.7L0.6-2.7 7.45-29.75Q8-31.95 8.63-32.68 9.25-33.4 10.9-33.4L10.9-33.4Q12.65-33.4 13.75-32.95L13.75-32.95Q21.1-33.9 27.15-34.1L27.15-34.1Z" opacity="1" transform="matrix(1,0,0,1,0,0)" fill="#0080ff" class="undefined-text-0" data-fill-palette-color="primary" id="text-0"></path></svg></g></svg></g></svg></g></svg></g></svg></g></svg></g></svg></g><g><path d="M186.247 0c30.402 0 58.24 10.976 79.768 29.183l-11.147 0c-19.26-14.022-42.974-22.294-68.621-22.295-25.647 0-49.361 8.272-68.622 22.295l-11.147 0c21.528-18.206 49.366-29.183 79.769-29.183zM186.247 247.2c-30.402 0-58.24-10.976-79.769-29.183h11.147c19.26 14.022 42.974 22.294 68.622 22.295 25.647 0 49.361-8.272 68.621-22.295l11.147 0c-21.528 18.206-49.366 29.183-79.768 29.183z" fill="#0080ff" stroke="transparent" data-fill-palette-color="tertiary"></path></g></svg></g><defs></defs></svg><rect width="395.52" height="247.2" fill="none" stroke="none" visibility="hidden"></rect></g></svg></g></svg>